<?xml version="1.0" encoding="UTF-8"?>
<svg id="Capa_2" data-name="Capa 2" xmlns="http://www.w3.org/2000/svg" xmlns:xlink="http://www.w3.org/1999/xlink" viewBox="0 0 276.46 276.46">
  <defs>
    <style>
      .cls-1 {
        fill: #fff;
        filter: url(#drop-shadow-1);
      }

      .cls-2 {
        fill: url(#Degradado_sin_nombre_298);
      }
    </style>
    <linearGradient id="Degradado_sin_nombre_298" data-name="Degradado sin nombre 298" x1="0" y1="138.23" x2="276.46" y2="138.23" gradientUnits="userSpaceOnUse">
      <stop offset="0" stop-color="#006b80"/>
      <stop offset=".62" stop-color="#009db0"/>
      <stop offset="1" stop-color="#62c2dc"/>
    </linearGradient>
    <filter id="drop-shadow-1" x="38.27" y="16.86" width="178.56" height="222.96" filterUnits="userSpaceOnUse">
      <feOffset dx="2.83" dy="2.83"/>
      <feGaussianBlur result="blur" stdDeviation="1.42"/>
      <feFlood flood-color="#026163" flood-opacity=".75"/>
      <feComposite in2="blur" operator="in"/>
      <feComposite in="SourceGraphic"/>
    </filter>
  </defs>
  <g id="Capa_1-2" data-name="Capa 1">
    <g>
      <circle class="cls-2" cx="138.23" cy="138.23" r="138.23"/>
      <path class="cls-1" d="M209,84.22l-9.71-14.17c-.5-.73-1.27-1.22-2.15-1.36-.87-.14-1.76.08-2.47.62l-19.45,14.78,11.47-29.01c.31-.8.3-1.69-.04-2.47l-14.06-32.33c-.46-1.05-1.44-1.78-2.57-1.92-1.15-.14-2.26.34-2.95,1.25l-44.5,58.54-22.31,4.82c-1.09.24-1.99,1.02-2.36,2.08l-19.66,55.48-37.28,31.55c-.91.77-1.32,1.99-1.07,3.16.26,1.17,1.14,2.1,2.29,2.42l21.28,5.87-11.98,43.39c-.39,1.4.21,2.89,1.46,3.63.51.3,1.08.45,1.65.45.82,0,1.62-.31,2.24-.91l38.59-37.24.56-.72,7.76-13.57c.67-1.17.54-2.62-.31-3.66-.85-1.03-2.26-1.43-3.53-1l-20.99,7.18-29.11-8.04,33.75-28.56.12.04.08-.21,24.41-20.66c1.36-1.15,1.53-3.19.38-4.55h0c-1.15-1.36-3.19-1.53-4.55-.38l-15.96,13.51,15.36-43.35,21.71-4.69c.75-.16,1.42-.59,1.89-1.2l24.91-32.76-17.18,34.82c-.54,1.1-.41,2.41.33,3.38.74.97,1.97,1.44,3.17,1.21l3.22-.61-11.35,29.43c-.12.31-.19.64-.21.97l-5.12,87.13c-.07,1.27.61,2.47,1.74,3.06,1.13.59,2.5.45,3.5-.35l14-11.26-1.52,31.16c-.07,1.36.72,2.61,1.98,3.13.4.17.82.25,1.24.25.89,0,1.75-.36,2.38-1.04l32.47-35.39,19.47,27.46c.87,1.23,2.47,1.69,3.86,1.12,1.39-.58,2.2-2.03,1.95-3.52l-15.58-92.19,19.05-41.6c.47-1.03.37-2.23-.27-3.17ZM78.15,187.56c.62.17,1.29.15,1.9-.06l13.85-4.74-3.29,5.75-29.76,28.72,8.84-32.02,8.46,2.34ZM183.95,127.21c-.27.59-.36,1.24-.25,1.88l13.4,79.26-13.62-19.21c-.56-.79-1.46-1.29-2.43-1.35-.98-.07-1.92.32-2.58,1.04l-29.13,31.75,1.44-29.41c.06-1.27-.63-2.45-1.76-3.03-.46-.24-.96-.35-1.46-.35-.72,0-1.44.24-2.02.71l-13.92,11.2,4.66-79.37,13.26-34.38c.42-1.09.22-2.33-.53-3.23-.75-.9-1.93-1.33-3.08-1.1l-2.56.49,26.1-52.88,10.75,24.73-15.23,38.51c-.53,1.35-.1,2.88,1.05,3.76,1.15.87,2.75.87,3.9,0l25.95-19.72,6.76,9.87-18.7,40.85Z"/>
    </g>
  </g>
</svg>