<?xml version="1.0" encoding="UTF-8"?>
<svg id="Capa_2" data-name="Capa 2" xmlns="http://www.w3.org/2000/svg" viewBox="0 0 276.46 276.46">
  <defs>
    <style>
      .cls-1 {
        fill: #fff;
      }
    </style>
  </defs>
  <g id="Capa_1-2" data-name="Capa 1">
    <g>
      <path class="cls-1" d="M90.61,188.52l3.29-5.75-13.85,4.74c-.61.21-1.28.23-1.9.06l-8.46-2.34-8.84,32.02,29.76-28.72Z"/>
      <path class="cls-1" d="M169.93,96.21c-1.15.87-2.75.88-3.9,0-1.15-.87-1.58-2.41-1.05-3.76l15.23-38.51-10.75-24.73-26.1,52.88,2.56-.49c1.15-.22,2.33.2,3.08,1.1.75.9.96,2.14.53,3.23l-13.26,34.38-4.66,79.37,13.92-11.2c.58-.47,1.3-.71,2.02-.71.5,0,1,.12,1.46.35,1.13.58,1.82,1.76,1.76,3.03l-1.44,29.41,29.13-31.75c.66-.72,1.6-1.11,2.58-1.04.97.06,1.86.56,2.43,1.35l13.62,19.21-13.4-79.26c-.11-.64-.02-1.29.25-1.88l18.7-40.85-6.76-9.87-25.95,19.72Z"/>
      <path class="cls-1" d="M138.23,0C61.89,0,0,61.89,0,138.23s61.89,138.23,138.23,138.23,138.23-61.89,138.23-138.23S214.57,0,138.23,0ZM209.27,87.39l-19.05,41.6,15.58,92.19c.25,1.48-.56,2.94-1.95,3.52-1.39.58-2.99.11-3.86-1.12l-19.47-27.46-32.47,35.39c-.62.68-1.49,1.04-2.38,1.04-.42,0-.84-.08-1.24-.25-1.25-.52-2.05-1.78-1.98-3.13l1.52-31.16-14,11.26c-1,.8-2.37.94-3.5.35-1.13-.58-1.82-1.78-1.74-3.06l5.12-87.13c.02-.33.09-.66.21-.97l11.35-29.43-3.22.61c-1.2.23-2.43-.24-3.17-1.21-.74-.97-.87-2.28-.33-3.38l17.18-34.82-24.91,32.76c-.47.61-1.14,1.04-1.89,1.2l-21.71,4.69-15.36,43.35,15.96-13.51c1.36-1.15,3.4-.98,4.55.38,1.15,1.36.98,3.4-.38,4.55l-24.41,20.66-.08.21-.12-.04-33.75,28.56,29.11,8.04,20.99-7.18c1.27-.43,2.68-.04,3.53,1,.85,1.04.98,2.49.31,3.66l-7.76,13.57c-.19.24-.37.48-.56.72l-38.59,37.24c-.62.6-1.42.91-2.24.91-.57,0-1.14-.15-1.65-.45-1.25-.74-1.85-2.23-1.46-3.63l11.98-43.39-21.28-5.87c-1.15-.32-2.03-1.25-2.29-2.42-.26-1.17.15-2.38,1.07-3.16l37.28-31.55,19.66-55.48c.37-1.05,1.27-1.84,2.36-2.08l22.31-4.82,44.5-58.54c.69-.91,1.81-1.39,2.95-1.25,1.14.14,2.11.87,2.57,1.92l14.06,32.33c.34.79.36,1.67.04,2.47l-11.47,29.01,19.45-14.78c.7-.53,1.59-.75,2.47-.62.87.14,1.65.63,2.15,1.36l9.71,14.17c.64.93.74,2.14.27,3.17Z"/>
    </g>
  </g>
</svg>